<svg width="42" height="28" viewBox="0 0 42 28" fill="none" xmlns="http://www.w3.org/2000/svg">
<path d="M40.7274 24.5866H1.26145C1.0568 24.5866 0.931931 24.3611 1.03946 24.1877L7.29511 14.1443C7.34714 14.0593 7.34714 13.9535 7.29511 13.8685L1.04119 3.82687C0.933666 3.65344 1.05854 3.42798 1.26318 3.42798H40.7395C40.9424 3.42798 41.0673 3.64997 40.9615 3.82514L34.6972 14.0766C34.6452 14.1616 34.6469 14.2691 34.6989 14.3524L40.9476 24.1877C41.0586 24.3611 40.9338 24.5883 40.7274 24.5883V24.5866Z" fill="#FF6900" stroke="#F93427" stroke-width="0.922558" stroke-miterlimit="10"/>
<path d="M17.8632 26.7545C12.0845 26.7545 7.38281 22.0528 7.38281 16.274V14.8745C7.38281 7.36663 13.4893 1.26013 20.9971 1.26013C28.505 1.26013 34.6115 7.36663 34.6115 14.8745V16.274C34.6115 22.0528 29.9098 26.7545 24.131 26.7545H17.8632Z" fill="#FDF3C4"/>
<path d="M20.9975 1.52029C28.3614 1.52029 34.3517 7.5106 34.3517 14.8745V16.2741C34.3517 21.9106 29.7662 26.4943 24.1314 26.4943H17.8636C12.2271 26.4943 7.64334 21.9088 7.64334 16.2741V14.8745C7.64334 7.5106 13.6336 1.52029 20.9975 1.52029ZM20.9975 1C13.3353 1 7.12305 7.2123 7.12305 14.8745V16.2741C7.12305 22.2054 11.9323 27.0146 17.8636 27.0146H24.1314C30.0628 27.0146 34.872 22.2054 34.872 16.2741V14.8745C34.872 7.2123 28.6597 1 20.9975 1Z" fill="#F93427" stroke="#F93427" stroke-width="0.4"/>
<path d="M15.6837 15.5682C16.1109 15.5682 16.4572 15.0332 16.4572 14.3733C16.4572 13.7133 16.1109 13.1783 15.6837 13.1783C15.2565 13.1783 14.9102 13.7133 14.9102 14.3733C14.9102 15.0332 15.2565 15.5682 15.6837 15.5682Z" fill="black"/>
<path d="M26.3116 15.5682C26.7388 15.5682 27.0851 15.0332 27.0851 14.3733C27.0851 13.7133 26.7388 13.1783 26.3116 13.1783C25.8844 13.1783 25.5381 13.7133 25.5381 14.3733C25.5381 15.0332 25.8844 15.5682 26.3116 15.5682Z" fill="black"/>
<path d="M20.998 16.6764V18.761" stroke="black" stroke-width="0.922558" stroke-linecap="round" stroke-linejoin="round"/>
<path d="M20.998 16.7822C21.5967 16.7822 22.0819 16.491 22.0819 16.1318C22.0819 15.7726 21.5967 15.4814 20.998 15.4814C20.3994 15.4814 19.9141 15.7726 19.9141 16.1318C19.9141 16.491 20.3994 16.7822 20.998 16.7822Z" fill="black"/>
<path d="M22.8781 21.5013L20.9982 18.6986L19.1182 21.5013" stroke="black" stroke-width="0.922558" stroke-linecap="round" stroke-linejoin="round"/>
<path d="M13.7139 3.60143C13.7139 3.60143 17.0091 1.52026 20.6511 1.52026C23.0791 1.52026 24.3885 1.73185 26.2009 2.56085C28.0132 3.38985 28.1086 3.60143 28.1086 3.60143L26.9276 4.52062L15.6129 4.22579L13.7139 3.60143Z" fill="#FF6900"/>
<path d="M28.7048 3.4939C28.325 3.53725 27.9972 3.72456 27.8272 3.99511L21.2941 14.4027C21.1571 14.6212 20.8397 14.6212 20.7027 14.4027L14.1696 3.99511C13.9996 3.72456 13.6718 3.53725 13.292 3.4939" fill="#FF6900"/>
<path d="M28.7048 3.4939C28.325 3.53725 27.9972 3.72456 27.8272 3.99511L21.2941 14.4027C21.1571 14.6212 20.8397 14.6212 20.7027 14.4027L14.1696 3.99511C13.9996 3.72456 13.6718 3.53725 13.292 3.4939" stroke="#F93427" stroke-width="0.922558" stroke-miterlimit="10"/>
</svg>
